<?xml version="1.0" encoding="iso-8859-1"?>
<!-- Uploaded to: SVG Repo, www.svgrepo.com, Generator: SVG Repo Mixer Tools -->
<svg fill="#13eddb" height="800px" width="800px" version="1.1" id="Layer_1" xmlns="http://www.w3.org/2000/svg" xmlns:xlink="http://www.w3.org/1999/xlink" 
	 viewBox="0 0 512.003 512.003" xml:space="preserve">
<g>
	<g>
		<path d="M487.207,145.946c-0.065-0.137-0.128-0.276-0.195-0.413c-0.808-1.687-1.633-3.369-2.48-5.04
			c-0.427-0.847-0.872-1.686-1.309-2.527c-0.346-0.664-0.69-1.329-1.041-1.992c-0.625-1.176-1.262-2.346-1.904-3.513
			c-0.108-0.196-0.216-0.391-0.325-0.586c-6.822-12.305-14.645-24.01-23.437-35.052c-0.198-0.25-0.398-0.495-0.598-0.743
			c-1.534-1.912-3.098-3.806-4.69-5.678c-0.432-0.51-0.856-1.023-1.292-1.53c-1.517-1.755-3.063-3.49-4.63-5.209
			c-1.068-1.173-2.152-2.33-3.24-3.483c-0.505-0.534-1.016-1.065-1.526-1.595c-3.975-4.141-8.08-8.141-12.314-11.995
			c-0.235-0.214-0.472-0.426-0.709-0.641c-2.875-2.598-5.8-5.137-8.786-7.6c-0.082-0.068-0.163-0.139-0.245-0.206
			c-1.231-1.013-2.477-2.006-3.727-2.997c-0.932-0.739-1.871-1.466-2.812-2.193c-1.031-0.792-2.057-1.594-3.099-2.37
			c-1.934-1.443-3.891-2.852-5.863-4.238c-0.707-0.495-1.419-0.982-2.13-1.471c-1.848-1.27-3.71-2.516-5.587-3.736
			c-0.393-0.254-0.779-0.515-1.172-0.766c-2.385-1.53-4.796-3.014-7.232-4.462c-0.32-0.19-0.642-0.377-0.963-0.566
			c-2.422-1.426-4.864-2.819-7.334-4.164c-0.084-0.046-0.167-0.094-0.251-0.14c-2.601-1.413-5.232-2.78-7.885-4.105
			c-0.293-0.146-0.587-0.289-0.88-0.433c-2.462-1.217-4.944-2.399-7.449-3.539c-0.218-0.098-0.434-0.202-0.652-0.3
			c-2.142-0.967-4.296-1.913-6.468-2.823c-0.167-0.071-0.338-0.12-0.507-0.183c-0.491-0.205-0.971-0.429-1.464-0.631
			C322.193,6.403,289.558,0,256.003,0s-66.189,6.403-97.002,19.027c-46.459,19.03-86.042,51.071-114.476,92.658
			c-29.127,42.607-44.522,92.51-44.522,144.314c0,38.471,8.497,75.89,24.796,110.054c0.065,0.137,0.128,0.276,0.195,0.413
			c0.808,1.687,1.632,3.369,2.48,5.04c0.427,0.847,0.872,1.686,1.309,2.527c0.346,0.664,0.69,1.329,1.041,1.992
			c0.625,1.176,1.262,2.346,1.904,3.513c0.108,0.196,0.217,0.391,0.325,0.586c6.822,12.305,14.645,24.01,23.437,35.052
			c0.198,0.25,0.398,0.495,0.598,0.743c1.534,1.913,3.098,3.806,4.69,5.678c0.432,0.51,0.856,1.023,1.292,1.53
			c1.517,1.755,3.063,3.49,4.63,5.209c1.068,1.173,2.152,2.33,3.24,3.483c0.505,0.534,1.016,1.065,1.526,1.595
			c3.975,4.141,8.08,8.141,12.314,11.995c0.235,0.214,0.472,0.426,0.709,0.641c2.875,2.598,5.8,5.137,8.786,7.6
			c0.082,0.068,0.163,0.139,0.245,0.206c1.231,1.013,2.477,2.006,3.727,2.997c0.932,0.739,1.871,1.466,2.812,2.193
			c1.031,0.792,2.057,1.594,3.099,2.37c1.934,1.443,3.891,2.852,5.863,4.238c0.707,0.495,1.419,0.982,2.13,1.471
			c1.848,1.27,3.71,2.516,5.587,3.736c0.393,0.254,0.779,0.515,1.172,0.766c2.385,1.53,4.796,3.014,7.232,4.462
			c0.32,0.191,0.642,0.377,0.963,0.566c2.422,1.426,4.864,2.819,7.334,4.164c0.084,0.046,0.167,0.094,0.251,0.14
			c2.601,1.413,5.232,2.78,7.885,4.105c0.293,0.146,0.587,0.289,0.88,0.433c2.462,1.217,4.944,2.399,7.449,3.539
			c0.218,0.098,0.435,0.202,0.652,0.3c2.142,0.967,4.296,1.913,6.468,2.823c0.163,0.068,0.331,0.117,0.495,0.179
			c0.495,0.206,0.979,0.433,1.475,0.635c30.814,12.626,63.45,19.029,97.003,19.029c33.554,0,66.189-6.403,97.002-19.027
			c46.459-19.03,86.042-51.071,114.476-92.658c29.128-42.607,44.523-92.51,44.523-144.314
			C512.004,217.529,503.506,180.11,487.207,145.946z M356.118,52.08c0.375,0.183,0.759,0.355,1.133,0.541
			c0.407,0.202,0.813,0.409,1.217,0.612c2.103,1.061,4.186,2.149,6.247,3.269c0.671,0.365,1.335,0.742,2.002,1.113
			c1.332,0.742,2.65,1.501,3.965,2.268c1.736,1.016,3.463,2.051,5.17,3.113c0.315,0.195,0.628,0.39,0.941,0.586
			c14.329,9.01,27.644,19.641,39.815,31.811c17.838,17.838,32.377,38.136,43.336,60.479l-111.889,55.586
			c-2.888-5.948-6.338-11.576-10.28-16.817l29.576-29.576c5.637-5.636,5.637-14.776,0-20.414c-5.638-5.635-14.775-5.635-20.414,0
			l-29.576,29.576c-5.24-3.941-10.867-7.392-16.817-10.281L356.118,52.08z M329.41,256.002c0,40.478-32.93,73.408-73.408,73.408
			c-7.227-0.001-14.209-1.068-20.811-3.024c-2.874-0.849-5.68-1.868-8.404-3.057c-0.051-0.023-0.101-0.046-0.152-0.069
			c-1.347-0.592-2.673-1.224-3.978-1.894c-0.046-0.025-0.094-0.049-0.141-0.072c-13.581-7.022-24.785-18.224-31.807-31.807
			c-0.025-0.046-0.048-0.094-0.072-0.141c-0.671-1.305-1.302-2.631-1.894-3.978c-0.023-0.052-0.046-0.101-0.069-0.152
			c-1.189-2.722-2.208-5.53-3.057-8.404c-1.956-6.602-3.022-13.583-3.022-20.811c0-40.478,32.93-73.408,73.408-73.408
			c7.233,0,14.218,1.068,20.823,3.027c2.865,0.846,5.664,1.862,8.378,3.047c0.064,0.029,0.126,0.059,0.191,0.087
			c1.332,0.586,2.646,1.211,3.938,1.875c0.056,0.029,0.111,0.058,0.166,0.087c13.58,7.022,24.781,18.226,31.8,31.807
			c0.023,0.043,0.045,0.088,0.068,0.131c0.674,1.312,1.309,2.646,1.904,4c0.019,0.043,0.04,0.087,0.059,0.13
			c1.194,2.731,2.216,5.546,3.066,8.43C328.345,241.809,329.41,248.782,329.41,256.002z M28.872,255.999
			c0-92.624,55.374-175.157,141.072-210.26c27.324-11.194,56.279-16.871,86.059-16.871c25.218,0,49.84,4.086,73.385,12.132
			l-56.689,114.109c-5.437-0.896-11.009-1.384-16.696-1.384c-56.396,0-102.276,45.88-102.276,102.276
			c0,5.687,0.488,11.261,1.386,16.699L40.959,329.407C33.089,306.219,28.872,281.496,28.872,255.999z M155.889,459.919
			c-0.375-0.183-0.759-0.355-1.133-0.541c-0.407-0.202-0.813-0.408-1.217-0.612c-2.104-1.061-4.187-2.151-6.249-3.271
			c-0.668-0.364-1.331-0.739-1.996-1.111c-1.335-0.742-2.654-1.504-3.971-2.27c-1.731-1.013-3.451-2.045-5.154-3.103
			c-0.322-0.199-0.644-0.4-0.964-0.6c-14.324-9.008-27.638-19.636-39.806-31.804c-17.838-17.838-32.377-38.136-43.336-60.479
			l111.89-55.584c2.89,5.948,6.339,11.576,10.28,16.816l-29.576,29.576c-5.636,5.637-5.636,14.776,0,20.414
			c2.819,2.818,6.513,4.228,10.206,4.228c3.694,0,7.387-1.41,10.206-4.228l29.576-29.576c5.24,3.94,10.867,7.39,16.816,10.28
			L155.889,459.919z M342.062,466.26c-27.324,11.195-56.277,16.871-86.059,16.871c-25.219,0-49.84-4.086-73.385-12.132
			l56.686-114.109c5.437,0.898,11.012,1.386,16.699,1.386c56.396,0,102.276-45.88,102.276-102.276c0-5.687-0.488-11.26-1.384-16.696
			l114.154-56.71c7.868,23.188,12.087,47.91,12.087,73.406C483.135,348.625,427.762,431.157,342.062,466.26z"/>
	</g>
</g>
<g>
	<g>
		<path d="M256.004,212.284c-24.105,0-43.715,19.61-43.715,43.715s19.61,43.715,43.715,43.715s43.715-19.609,43.715-43.715
			C299.719,231.894,280.109,212.284,256.004,212.284z M256.003,270.846c-8.187,0-14.847-6.66-14.847-14.847
			c0-8.187,6.66-14.847,14.847-14.847s14.847,6.66,14.847,14.847S264.19,270.846,256.003,270.846z"/>
	</g>
</g>
<g>
	<g>
		<path d="M402.35,120.981c-0.188-0.922-0.462-1.832-0.823-2.698c-0.361-0.867-0.808-1.718-1.328-2.497
			c-0.518-0.794-1.124-1.53-1.788-2.194c-3.349-3.349-8.33-4.893-13.034-3.941c-0.924,0.188-1.819,0.462-2.699,0.823
			c-0.866,0.361-1.703,0.808-2.483,1.328c-0.794,0.52-1.531,1.126-2.208,1.79c-0.664,0.664-1.256,1.4-1.79,2.194
			c-0.518,0.779-0.967,1.631-1.328,2.497c-0.361,0.866-0.634,1.774-0.821,2.699c-0.189,0.937-0.274,1.876-0.274,2.815
			c0,0.951,0.087,1.891,0.274,2.829c0.188,0.924,0.46,1.819,0.821,2.698c0.361,0.867,0.81,1.705,1.328,2.484
			c0.534,0.794,1.126,1.53,1.79,2.194c0.678,0.68,1.415,1.27,2.208,1.804c0.779,0.52,1.617,0.967,2.483,1.328
			c0.88,0.361,1.775,0.635,2.699,0.823c0.938,0.188,1.891,0.274,2.829,0.274c3.796,0,7.52-1.531,10.205-4.231
			c0.664-0.664,1.27-1.4,1.788-2.194c0.52-0.779,0.967-1.617,1.328-2.484c0.361-0.879,0.635-1.774,0.823-2.698
			c0.188-0.938,0.289-1.878,0.289-2.829C402.639,122.857,402.538,121.918,402.35,120.981z"/>
	</g>
</g>
<g>
	<g>
		<path d="M137.961,385.372c-0.188-0.909-0.462-1.817-0.823-2.699c-0.361-0.866-0.808-1.703-1.328-2.483
			c-0.534-0.795-1.14-1.531-1.804-2.195c-3.347-3.363-8.341-4.893-13.02-3.955c-0.925,0.189-1.835,0.462-2.699,0.823
			c-0.88,0.361-1.718,0.81-2.497,1.328c-0.794,0.534-1.53,1.126-2.194,1.804c-0.664,0.664-1.27,1.4-1.79,2.195
			c-0.518,0.779-0.967,1.617-1.328,2.483c-0.361,0.88-0.634,1.79-0.823,2.699c-0.188,0.937-0.287,1.891-0.287,2.829
			c0,0.937,0.1,1.891,0.287,2.815c0.189,0.924,0.462,1.833,0.823,2.699c0.361,0.879,0.81,1.716,1.328,2.496
			c0.52,0.794,1.126,1.531,1.79,2.195c0.664,0.664,1.4,1.27,2.194,1.788c0.779,0.52,1.617,0.967,2.497,1.328
			c0.866,0.361,1.774,0.635,2.699,0.823c0.924,0.188,1.876,0.289,2.815,0.289c0.937,0,1.891-0.101,2.829-0.289
			c0.909-0.188,1.819-0.462,2.699-0.823c0.866-0.361,1.703-0.808,2.483-1.328c0.794-0.518,1.53-1.124,2.194-1.788
			c0.664-0.664,1.27-1.402,1.804-2.195c0.52-0.779,0.967-1.617,1.328-2.496c0.361-0.867,0.635-1.775,0.823-2.699
			c0.188-0.925,0.274-1.878,0.274-2.815C138.235,387.263,138.147,386.309,137.961,385.372z"/>
	</g>
</g>
</svg>